# xmcd CD database file
#
# Track frame offsets:
#	150
#	20974
#	45021
#	66009
#	88471
#	113901
#	137056
#	160128
#	169486
#
# Disc length: 2550 seconds
#
# Revision: 1
# Processed by: cddbd v1.5.2PL0 Copyright (c) Steve Scherf et al.
# Submitted via: CDex 1.70beta2
#
DISCID=7a09f409
DTITLE=les Shamiz - les Shamiz
DYEAR=2009
DGENRE=Jazz
TTITLE0=crepuscul air
TTITLE1=bistrot funk
TTITLE2=les 3 djinns
TTITLE3=chessnotes
TTITLE4=sous l eau
TTITLE5=tamburino
TTITLE6=potatoes march
TTITLE7=intro
TTITLE8=la danse du ruisseau
EXTD=YEAR: 2009
EXTT0=
EXTT1=
EXTT2=
EXTT3=
EXTT4=
EXTT5=
EXTT6=
EXTT7=
EXTT8=
PLAYORDER=
